<?xml version="1.0" encoding="UTF-8"?>
<svg width="512px" height="512px" viewBox="0 0 512 512" version="1.1" xmlns="http://www.w3.org/2000/svg" xmlns:xlink="http://www.w3.org/1999/xlink">
    <!-- Generator: Sketch 54.1 (76490) - https://sketchapp.com -->
    <title>cyprusjs-logo-color</title>
    <desc>Created with Sketch.</desc>
    <defs>
        <linearGradient x1="30.0516512%" y1="15.1184082%" x2="69.6086335%" y2="85.2073023%" id="linearGradient-1">
            <stop stop-color="#01C1C3" offset="0%"></stop>
            <stop stop-color="#003966" offset="99.9129012%"></stop>
        </linearGradient>
        <linearGradient x1="50%" y1="0%" x2="50%" y2="100%" id="linearGradient-2">
            <stop stop-color="#00FFFF" offset="0%"></stop>
            <stop stop-color="#004C5E" offset="100%"></stop>
        </linearGradient>
        <linearGradient x1="100%" y1="33.1843786%" x2="1.11022302e-14%" y2="66.8156214%" id="linearGradient-3">
            <stop stop-color="#004C5E" offset="0%"></stop>
            <stop stop-color="#00FFFF" offset="100%"></stop>
        </linearGradient>
        <linearGradient x1="50%" y1="0%" x2="50%" y2="100%" id="linearGradient-4">
            <stop stop-color="#00FFFF" offset="0%"></stop>
            <stop stop-color="#004C5E" offset="100%"></stop>
        </linearGradient>
        <linearGradient x1="39.7577421%" y1="87.7686367%" x2="100%" y2="50%" id="linearGradient-5">
            <stop stop-color="#F5A623" offset="0%"></stop>
            <stop stop-color="#F8E71C" offset="100%"></stop>
        </linearGradient>
    </defs>
    <g id="cyprusjs-logo-color" stroke="none" stroke-width="1" fill="none" fill-rule="evenodd">
        <path d="M272,9.23760431 L461.702503,118.762396 C471.603338,124.478645 477.702503,135.04271 477.702503,146.475209 L477.702503,365.524791 C477.702503,376.95729 471.603338,387.521355 461.702503,393.237604 L272,502.762396 C262.099166,508.478645 249.900834,508.478645 240,502.762396 L50.2974966,393.237604 C40.3966622,387.521355 34.2974966,376.95729 34.2974966,365.524791 L34.2974966,146.475209 C34.2974966,135.04271 40.3966622,124.478645 50.2974966,118.762396 L240,9.23760431 C249.900834,3.52135487 262.099166,3.52135487 272,9.23760431 Z" id="Background" fill="url(#linearGradient-1)"></path>
        <path d="M39.0912852,129.628155 L474.025195,380.41865 C473.71478,381.008881 473.386019,381.589257 473.039419,382.158903 L38.0919954,131.360615 C38.4069795,130.772873 38.7402444,130.195095 39.0912852,129.628155 L39.0912852,129.628155 Z" id="Line-3" fill="url(#linearGradient-2)" fill-rule="nonzero"></path>
        <path d="M473.9087,131.361912 L39.0905107,382.370594 C38.739496,381.803638 38.4062576,381.225844 38.0913004,380.638088 L472.909489,129.629406 C473.260504,130.196362 473.593742,130.774156 473.9087,131.361912 L473.9087,131.361912 Z" id="Line-2" fill="url(#linearGradient-3)" fill-rule="nonzero"></path>
        <path d="M257,507.033973 C256.333502,507.054786 255.666498,507.054786 255,507.033973 L255,4.9660274 C255.666498,4.94521384 256.333502,4.94521384 257,4.9660274 L257,507.033973 L257,507.033973 Z" id="Line-1" fill="url(#linearGradient-4)" fill-rule="nonzero"></path>
        <path d="M265.012015,6.24484574 C265.018259,6.28438674 265.024345,6.3233225 265.030271,6.36165301 C266.159605,13.6851546 266.966981,19.9244683 267.119362,21.0997196 L267.366743,23.0239554 L276.905208,31.2542575 L283.043655,38.4959048 L275.31843,41.259479 L263.686697,28.5146906 L253.409271,21.3869403 L246.277541,7.26552322 C246.160916,7.0345956 246.05519,6.80102141 245.96017,6.56538631 C252.135131,4.52484491 258.787101,4.41799805 265.012015,6.24484574 L265.012015,6.24484574 Z M327.866549,48.1127792 C338.094881,52.409895 346.591164,59.0517448 353.117773,67.8531994 L353.124905,67.8627591 L353.11351,67.8711025 C353.11351,67.8711025 350.47145,69.3889342 346.112113,70.0116252 C341.959269,70.6061586 335.213152,70.5678483 326.654095,67.0095039 L326.477495,66.9353394 C316.363019,62.6876795 305.9412,54.5725429 295.5006,42.8145015 C296.165571,42.7458501 311.545427,41.2585863 327.86202,48.1108776 L327.85551,48.0917324 L327.866549,48.1127792 Z M365.516678,74.8354502 C367.517722,75.6758053 368.892373,77.0629679 369.387987,78.7387741 C369.79355,80.11535 369.696159,81.6805135 369.087103,83.529704 C368.088679,86.5583187 366.073212,89.1410235 365.87928,89.3876272 C364.841769,89.3295112 363.877648,89.1313587 363.068424,88.8120211 L362.887773,88.7395721 C358.877701,87.0555085 357.663525,82.8243214 358.23858,79.3769997 C358.566886,77.4184489 359.340575,75.980113 360.541715,75.1040108 C361.744643,74.225242 363.746249,74.1090292 365.502951,74.8467711 L365.516678,74.8354502 Z M282.920089,50.2219549 C306.922501,64.521996 312.444262,77.5246007 312.850428,85.9139241 C313.283336,94.8609194 308.012949,100.755676 307.959644,100.815001 L307.94265,100.831697 L307.919461,100.828767 C307.911911,100.825597 306.06376,100.534608 303.645401,99.5326165 C296.672896,96.6044541 280.90675,86.0288632 282.901856,50.2347254 L282.903751,50.2116892 L282.925045,50.2376548 L282.920089,50.2219549 Z M331.872461,77.6965573 C343.334961,82.5120007 350.945389,87.8436507 354.491425,93.5472405 C356.529985,96.8244616 356.755691,99.579131 356.586757,101.314835 C356.427743,102.941163 355.857824,104.107735 355.738262,104.336369 C355.356696,104.326403 349.486558,104.111987 342.294478,101.445595 C341.686732,101.220422 341.080461,100.984181 340.453554,100.722576 C331.593245,97.0016139 319.753445,88.9069921 313.316593,71.3264752 L313.310541,71.3089059 L313.328418,71.3147436 C320.300932,73.3245578 326.551746,75.4654177 331.884626,77.7050057 L331.872461,77.6965573 Z M386.529291,101.227649 C398.432801,106.226628 412.717322,116.180182 417.113704,129.120361 L417.11743,129.135174 L417.082655,129.12885 C416.960512,129.107364 404.293131,126.843003 391.667748,121.870421 C390.914527,121.573972 390.16107,121.269144 389.406064,120.952073 C378.245382,116.26505 370.934515,110.839886 367.672369,104.828012 C366.533866,102.728614 366.2376,101.095533 366.767514,99.8392219 C367.209682,98.7895005 368.505801,98.0023524 370.237148,97.7358156 C373.899855,97.1691606 379.067362,98.2164968 385.600126,100.847374 L386.530761,101.205082 L386.529291,101.227649 Z M414.213299,135.542305 C415.479799,136.074183 416.25763,137.186809 416.347469,138.591683 C416.420453,139.755163 416.109488,141.104261 415.371027,142.834708 C414.13751,145.726242 412.227143,148.259728 412.208459,148.285091 L412.189774,148.310454 C411.545082,148.35705 410.921034,148.264716 410.323858,148.034222 L410.319912,148.032565 C408.798271,147.393539 408.246227,145.999353 408.032389,144.93539 C407.748676,143.515518 407.866646,141.83076 408.364729,140.194934 C408.878609,138.510392 409.632814,137.236737 410.670682,136.301763 C411.503043,135.56277 412.995631,135.045695 414.205579,135.553823 L414.213299,135.542305 Z M322.688515,100.414351 C324.689559,101.254706 326.06421,102.641869 326.559824,104.317675 C326.965387,105.694251 326.867996,107.259414 326.25894,109.108605 C325.260516,112.137219 323.24505,114.719924 323.051118,114.966528 C322.013606,114.908412 321.049486,114.710259 320.240261,114.390922 L320.05961,114.318473 C316.049538,112.634409 314.835362,108.403222 315.410417,104.9559 C315.738723,102.99735 316.512412,101.559014 317.713553,100.682912 C318.925417,99.7908098 320.934056,99.6946367 322.674788,100.425672 L322.688515,100.414351 Z M364.401377,121.131319 C387.825293,131.937541 396.153083,143.25768 399.013239,150.852791 C400.623745,155.128365 400.699641,158.727987 400.47847,160.994365 C400.268117,163.13412 399.738202,164.616751 399.629191,164.901512 L399.589025,164.900384 C399.584463,164.898468 396.838138,164.675539 393.151641,163.209561 L392.588378,162.98001 C384.518225,159.590881 370.127859,149.649236 364.404098,121.144967 L364.413245,121.131319 L364.401377,121.131319 Z M339.35528,112.129772 C357.050427,122.998098 363.026368,135.196873 364.921778,143.519546 C366.909657,152.242945 364.897833,158.744686 364.800411,159.046057 C364.758474,159.040924 362.000966,158.601325 358.3587,157.176905 C358.093846,157.074591 357.821013,156.963578 357.545425,156.847843 C357.266759,156.730815 356.985338,156.609064 356.700556,156.480554 C347.026022,152.169852 331.908101,140.679565 339.353372,112.141449 L339.337976,112.134984 L339.35528,112.129772 Z M431.711769,161.483487 C438.034694,164.138852 443.721878,167.38145 448.613215,171.120905 C457.172355,177.665994 459.150733,183.001042 459.301753,186.324723 C459.388336,188.211886 458.92199,189.639051 458.514392,190.503614 C458.126422,191.33015 457.645513,191.916559 457.56292,192.013565 L457.505439,192.009001 C457.475808,192.003676 449.6505,190.90808 440.322624,187.156264 C439.954673,187.008859 439.585536,186.857396 439.212165,186.700596 C434.751524,184.827312 430.620669,182.596011 426.933479,180.066975 C412.838128,170.39786 411.913592,155.856297 411.907283,155.711278 L411.90804,155.69558 L411.930644,155.699734 C412.03139,155.724246 420.99407,156.97894 431.722774,161.484549 L431.711769,161.483487 Z M376.184604,158.356189 C378.216522,159.20951 379.60426,160.586176 380.094198,162.233933 C380.497688,163.588191 380.388511,165.174669 379.760064,167.079753 C378.76326,170.116116 376.755591,172.679947 376.569064,172.915391 C375.528647,172.857392 374.561896,172.658867 373.750536,172.338705 L373.569409,172.266069 C369.556812,170.580944 368.337322,166.332632 368.91085,162.871604 C369.226864,160.967337 370.01028,159.547417 371.242586,158.64865 C372.492251,157.733169 374.4336,157.622555 376.178904,158.35551 L376.184604,158.356189 Z M408.852365,175.141733 C408.976201,175.234795 416.560584,181.120695 422.278631,190.10707 C427.572165,198.422495 432.309521,211.188308 424.817237,224.785587 L424.812569,224.792552 L424.787421,224.789131 C424.785891,224.788488 423.881462,224.631796 422.688855,224.182717 C422.524515,224.120842 422.351336,224.051684 422.172376,223.976528 C419.639408,222.912787 414.889227,220.086077 411.527448,213.108497 C407.25885,204.211382 406.365558,191.448021 408.857112,175.125876 L408.852365,175.141733 Z M385.90233,168.52918 C385.944204,168.572674 390.707779,173.471609 394.590271,182.686725 C398.206609,191.273601 401.832349,205.523102 398.553767,224.649438 C398.54837,224.648898 396.293808,224.750555 393.581969,223.8017 C393.42435,223.747597 393.26975,223.686126 393.115458,223.621331 C392.890763,223.526968 392.663094,223.42272 392.430028,223.317932 C388.879848,221.709547 384.284513,218.04893 382.154958,209.56652 C379.709961,199.821975 380.949423,186.017891 385.844126,168.535828 L385.858055,168.486403 L385.89396,168.518755 L385.90233,168.52918 Z M442.970506,192.15972 C449.876559,195.059976 449.757648,199.756596 449.385831,201.642466 C448.77363,204.741538 446.68018,207.20221 446.660227,207.226503 L446.636943,207.253027 C445.334476,207.059995 444.05014,206.716661 442.903729,206.255182 L442.666419,206.157337 C437.224374,203.871904 434.759604,199.335423 434.732556,195.85354 C434.72707,195.163303 434.855243,192.830238 436.757039,191.764778 C438.270902,190.930284 440.350475,191.059416 442.971938,192.160322 L442.970506,192.15972 Z M446.679365,217.043581 C450.79461,218.771813 456.939579,221.642539 462.835148,225.502095 C468.681201,229.330307 469.044805,235.902002 468.320445,240.738624 C467.530355,246.006519 465.340629,250.428177 465.318238,250.473276 L465.299894,250.465573 C445.354395,241.403614 439.333627,232.051772 437.794906,225.804115 C436.206591,219.352784 439.074101,214.551187 439.258963,214.249062 L439.273641,214.253467 C439.304215,214.266307 442.32839,215.219869 446.685169,217.049535 L446.679365,217.043581 Z M413.288742,228.051285 C413.296289,228.093004 413.912235,231.638925 414.082858,235.793358 C414.263541,240.153527 414.165433,244.582354 412.251858,247.437463 C410.404269,250.194119 407.238965,256.311951 405.51817,259.712369 C403.333624,264.025463 401.549315,267.753165 401.396624,268.069282 L401.380278,268.055409 C400.974233,267.669358 391.445025,258.426461 398.297419,248.202493 C405.16081,237.962117 413.193251,228.149612 413.272762,228.051583 L413.284382,228.037188 L413.299776,228.043653 L413.288742,228.051285 Z M427.329367,233.863621 C427.460607,233.918737 427.582947,233.984144 427.700702,234.056393 C431.021223,236.140051 435.837647,241.321041 440.581994,247.915002 C445.849363,255.237163 449.433884,262.217353 450.673962,267.569391 C451.804126,272.449138 450.224768,278.703953 445.981175,286.16171 C442.969003,291.453555 439.612032,295.506331 439.275503,295.906876 C438.506148,295.824026 437.760374,295.628325 437.033866,295.323222 C434.304422,294.126114 432.090696,291.804057 429.7251,287.739994 C427.881969,284.572248 426.172009,280.599394 424.64256,275.936009 C422.003556,267.888614 420.718461,260.378239 420.705797,260.304529 L420.692488,260.228794 C420.714117,259.404902 420.921145,252.308967 421.812518,245.691573 C422.378695,241.489147 423.047933,238.56982 423.920361,236.500408 C424.416179,235.321507 424.825012,234.583065 425.560104,234.065813 C425.865507,233.852111 426.272123,233.705465 426.572517,233.705357 C426.846281,233.715108 427.09253,233.765913 427.342511,233.870895 L427.329367,233.863621 Z" id="Top-Leaf" fill="#011D33" fill-rule="nonzero"></path>
        <path d="M263.003175,506.274502 C257.051953,507.608635 250.806396,507.220453 245.026456,505.109957 C245.007029,505.050134 244.988124,504.990002 244.969746,504.929565 C244.879387,504.632417 244.803105,504.331169 244.741153,504.026827 L244.741122,504.026833 C244.365243,502.180285 244.099336,500.752744 243.943401,499.744211 C242.814067,492.42071 242.006691,486.181396 241.85431,485.006144 L241.606929,483.081909 L232.068465,474.851607 L225.930018,467.609959 L233.655242,464.846385 L245.286976,477.591174 L255.564402,484.718924 L262.696131,498.840341 C263.914142,501.252105 263.943355,503.952538 263.003175,506.274502 L263.003175,506.274502 Z M181.107124,457.993085 C170.878791,453.695969 162.382508,447.054119 155.8559,438.252665 L155.848767,438.243105 L155.860162,438.234762 C155.860162,438.234762 158.502222,436.71693 162.861559,436.094239 C167.014403,435.499706 173.76052,435.538016 182.319577,439.09636 L182.496177,439.170525 C192.610654,443.418185 203.032472,451.533321 213.473072,463.291363 C212.808101,463.360014 197.428246,464.847278 181.111652,457.994987 L181.118163,458.014132 L181.107124,457.993085 Z M143.456994,431.270414 C141.455951,430.430059 140.081299,429.042896 139.585685,427.36709 C139.180122,425.990514 139.277514,424.425351 139.886569,422.57616 C140.884993,419.547545 142.90046,416.964841 143.094392,416.718237 C144.131904,416.776353 145.096024,416.974505 145.905248,417.293843 L146.0859,417.366292 C150.095972,419.050356 151.310147,423.281543 150.735093,426.728864 C150.406786,428.687415 149.633098,430.125751 148.431957,431.001853 C147.229029,431.880622 145.227423,431.996835 143.470721,431.259093 L143.456994,431.270414 Z M226.053583,455.883909 C202.051171,441.583868 196.52941,428.581263 196.123244,420.19194 C195.690336,411.244945 200.960723,405.350188 201.014028,405.290863 L201.031022,405.274167 L201.054212,405.277097 C201.061761,405.280267 202.909912,405.571256 205.328272,406.573248 C212.300777,409.50141 228.066922,420.077001 226.071817,455.871139 L226.069921,455.894175 L226.048627,455.868209 L226.053583,455.883909 Z M177.101211,428.409307 C165.638711,423.593863 158.028283,418.262213 154.482248,412.558624 C152.443687,409.281403 152.217981,406.526733 152.386915,404.791029 C152.545929,403.164701 153.115848,401.998129 153.235411,401.769495 C153.616977,401.779461 159.487115,401.993877 166.679194,404.660269 C167.28694,404.885442 167.893211,405.121683 168.520118,405.383288 C177.380428,409.10425 189.220228,417.198872 195.657079,434.779389 L195.663131,434.796958 L195.645255,434.79112 C188.67274,432.781306 182.421926,430.640446 177.089046,428.400858 L177.101211,428.409307 Z M122.444382,404.878215 C110.540872,399.879236 96.2563503,389.925682 91.8599686,376.985504 L91.8562424,376.97069 L91.8910169,376.977014 C92.0131606,376.9985 104.680542,379.262861 117.305924,384.235443 C118.059145,384.531892 118.812603,384.83672 119.567608,385.153791 C130.72829,389.840814 138.039157,395.265978 141.301303,401.277853 C142.439806,403.37725 142.736072,405.010331 142.206158,406.266642 C141.76399,407.316364 140.467871,408.103512 138.736525,408.370048 C135.073817,408.936703 129.90631,407.889367 123.373547,405.25849 L122.442911,404.900782 L122.444382,404.878215 Z M94.7603736,370.563559 C93.4938734,370.031682 92.7160427,368.919055 92.6262029,367.514181 C92.5532197,366.350701 92.8641847,365.001603 93.6026453,363.271156 C94.8361627,360.379622 96.7465291,357.846136 96.7652136,357.820773 L96.7838981,357.79541 C97.4285907,357.748814 98.052638,357.841148 98.6498145,358.071642 L98.65376,358.073299 C100.175401,358.712325 100.727446,360.106511 100.941283,361.170474 C101.224996,362.590346 101.107026,364.275104 100.608943,365.91093 C100.095064,367.595472 99.3408586,368.869127 98.3029906,369.804101 C97.4706292,370.543094 95.9780415,371.060169 94.7680933,370.552041 L94.7603736,370.563559 Z M186.285157,405.691513 C184.284113,404.851158 182.909462,403.463995 182.413848,401.788189 C182.008285,400.411613 182.105677,398.84645 182.714732,396.997259 C183.713156,393.968645 185.728623,391.38594 185.922555,391.139336 C186.960066,391.197452 187.924187,391.395605 188.733411,391.714942 L188.914063,391.787391 C192.924135,393.471455 194.13831,397.702642 193.563255,401.149964 C193.234949,403.108514 192.461261,404.54685 191.26012,405.422953 C190.048256,406.315054 188.039616,406.411227 186.298884,405.680192 L186.285157,405.691513 Z M144.572295,384.974545 C121.14838,374.168323 112.820589,362.848184 109.960434,355.253073 C108.349927,350.977499 108.274031,347.377877 108.495202,345.111499 C108.705555,342.971745 109.235471,341.489113 109.344481,341.204352 L109.384648,341.20548 C109.38921,341.207396 112.135534,341.430325 115.822032,342.896303 L116.385294,343.125854 C124.455448,346.514983 138.845813,356.456628 144.569574,384.960897 L144.560427,384.974545 L144.572295,384.974545 Z M169.618392,393.976093 C151.923245,383.107766 145.947304,370.908991 144.051894,362.586318 C142.064015,353.862919 144.075839,347.361178 144.173261,347.059807 C144.215198,347.06494 146.972706,347.504539 150.614973,348.928959 C150.879826,349.031273 151.15266,349.142286 151.428247,349.258021 C151.706914,349.37505 151.988334,349.4968 152.273116,349.62531 C161.94765,353.936012 177.065571,365.426299 169.6203,393.964415 L169.635696,393.97088 L169.618392,393.976093 Z M77.2619037,344.622377 C70.9389788,341.967012 65.2517942,338.724414 60.3604579,334.984959 C51.8013173,328.43987 49.8229397,323.104822 49.6719198,319.781141 C49.5853362,317.893978 50.0516821,316.466813 50.4592805,315.60225 C50.8472509,314.775714 51.3281596,314.189306 51.4107522,314.092299 L51.4682335,314.096863 C51.497864,314.102188 59.3231723,315.197784 68.6510489,318.9496 C69.0189992,319.097005 69.388136,319.248468 69.7615071,319.405269 C74.2221485,321.278553 78.3530032,323.509853 82.0401934,326.038889 C96.1355446,335.708004 97.0600805,350.249567 97.0663891,350.394586 L97.065632,350.410284 L97.0430281,350.40613 C96.9422826,350.381618 87.979602,349.126925 77.2508984,344.621315 L77.2619037,344.622377 Z M132.789068,347.749675 C130.75715,346.896354 129.369412,345.519688 128.879474,343.871931 C128.475984,342.517673 128.585161,340.931196 129.213609,339.026111 C130.210413,335.989748 132.218081,333.425917 132.404608,333.190473 C133.445025,333.248472 134.411777,333.446997 135.223136,333.767159 L135.404264,333.839796 C139.416861,335.52492 140.63635,339.773232 140.062822,343.23426 C139.746809,345.138527 138.963393,346.558447 137.731086,347.457214 C136.481421,348.372695 134.540072,348.48331 132.794768,347.750355 L132.789068,347.749675 Z M100.121307,330.964131 C99.9974712,330.871069 92.4130881,324.985169 86.6950414,315.998794 C81.4015072,307.683369 76.6641514,294.917557 84.1564353,281.320277 L84.1611033,281.313312 L84.1862517,281.316733 C84.1877813,281.317376 85.0922108,281.474068 86.2848179,281.923147 C86.4491572,281.985022 86.6223362,282.05418 86.8012959,282.129336 C89.334264,283.193077 94.0844455,286.019787 97.4462242,292.997367 C101.714822,301.894482 102.608114,314.657843 100.11656,330.979988 L100.121307,330.964131 Z M123.071342,337.576685 C123.029468,337.53319 118.265894,332.634255 114.383402,323.419139 C110.767064,314.832263 107.141323,300.582762 110.419905,281.456426 C110.425303,281.456966 112.679864,281.355309 115.391704,282.304164 C115.549323,282.358267 115.703923,282.419738 115.858214,282.484534 C116.08291,282.578897 116.310579,282.683144 116.543645,282.787932 C120.093824,284.396317 124.68916,288.056934 126.818715,296.539344 C129.263712,306.28389 128.02425,320.087973 123.129547,337.570036 L123.115617,337.619461 L123.079712,337.587109 L123.071342,337.576685 Z M66.0031664,313.946144 C59.0971136,311.045889 59.2160247,306.349268 59.587841,304.463398 C60.2000419,301.364326 62.2934924,298.903654 62.3134455,298.879361 L62.3367298,298.852837 C63.6391964,299.045869 64.9235327,299.389203 66.069943,299.850682 L66.3072539,299.948527 C71.749298,302.23396 74.2140688,306.770442 74.2411164,310.252324 C74.2466022,310.942561 74.1184294,313.275626 72.2166329,314.341086 C70.7027701,315.17558 68.6231977,315.046448 66.0017339,313.945542 L66.0031664,313.946144 Z M62.2943073,289.062283 C58.179062,287.334051 52.0340937,284.463325 46.1385245,280.603769 C40.292471,276.775557 39.928867,270.203862 40.6532278,265.36724 C41.4433173,260.099345 43.6330436,255.677687 43.6554345,255.632588 L43.6737789,255.640292 C63.6192775,264.70225 69.6400452,274.054092 71.1787665,280.301749 C72.7670816,286.753081 69.8995715,291.554677 69.7147092,291.856803 L69.7000314,291.852397 C69.6694575,291.839557 66.6452819,290.885995 62.2885029,289.056329 L62.2943073,289.062283 Z M95.68493,278.054579 C95.6773835,278.01286 95.0614378,274.466939 94.8908145,270.312506 C94.7101313,265.952337 94.8082393,261.52351 96.721814,258.668401 C98.5694033,255.911745 101.734708,249.793913 103.455502,246.393495 C105.640048,242.080402 107.424358,238.352699 107.577049,238.036582 L107.593395,238.050455 C107.999439,238.436506 117.528647,247.679403 110.676254,257.903371 C103.812863,268.143747 95.7804212,277.956253 95.7009108,278.054281 L95.6892904,278.068676 L95.6738966,278.062212 L95.68493,278.054579 Z M81.6443053,272.242243 C81.5130652,272.187127 81.3907249,272.12172 81.2729705,272.049471 C77.9524495,269.965813 73.1360255,264.784823 68.391678,258.190862 C63.1243093,250.868702 59.5397883,243.888511 58.2997106,238.536473 C57.1695459,233.656726 58.7489044,227.401911 62.9924969,219.944154 C66.0046693,214.652309 69.3616408,210.599533 69.6981697,210.198989 C70.4675245,210.281838 71.2132987,210.477539 71.9398064,210.782642 C74.66925,211.97975 76.882976,214.301807 79.2485725,218.36587 C81.0917033,221.533616 82.8016633,225.50647 84.3311125,230.169855 C86.9701159,238.21725 88.2552112,245.727626 88.2678751,245.801336 L88.2811842,245.87707 C88.2595559,246.700963 88.0525269,253.796898 87.1611546,260.414291 C86.5949774,264.616717 85.9257393,267.536044 85.0533113,269.605456 C84.5574937,270.784357 84.1486608,271.522799 83.4135679,272.040051 C83.1081653,272.253753 82.7015492,272.400399 82.4011551,272.400508 C82.127391,272.390756 81.8811421,272.339951 81.631161,272.234969 L81.6443053,272.242243 Z" id="Bottom-Leaf" fill="#011D33"></path>
        <path d="M264,132.618802 L358.851252,187.381198 C363.801669,190.239323 366.851252,195.521355 366.851252,201.237604 L366.851252,310.762396 C366.851252,316.478645 363.801669,321.760677 358.851252,324.618802 L264,379.381198 C259.049583,382.239323 252.950417,382.239323 248,379.381198 L153.148748,324.618802 C148.198331,321.760677 145.148748,316.478645 145.148748,310.762396 L145.148748,201.237604 C145.148748,195.521355 148.198331,190.239323 153.148748,187.381198 L248,132.618802 C252.950417,129.760677 259.049583,129.760677 264,132.618802 Z" id="Yellow-Box" fill="url(#linearGradient-5)"></path>
        <path d="M265.25,130.453739 L360.101252,185.216134 C365.825172,188.520841 369.351252,194.628191 369.351252,201.237604 L369.351252,310.762396 C369.351252,317.371809 365.825172,323.479159 360.101252,326.783866 L265.25,381.546261 C259.52608,384.850968 252.47392,384.850968 246.75,381.546261 L151.898748,326.783866 C146.174828,323.479159 142.648748,317.371809 142.648748,310.762396 L142.648748,201.237604 C142.648748,194.628191 146.174828,188.520841 151.898748,185.216134 L246.75,130.453739 C252.47392,127.149032 259.52608,127.149032 265.25,130.453739 Z M262.75,134.783866 C258.573085,132.372323 253.426915,132.372323 249.25,134.783866 L154.398748,189.546261 C150.221834,191.957804 147.648748,196.414519 147.648748,201.237604 L147.648748,310.762396 C147.648748,315.585481 150.221834,320.042196 154.398748,322.453739 L249.25,377.216134 C253.426915,379.627677 258.573085,379.627677 262.75,377.216134 L357.601252,322.453739 C361.778166,320.042196 364.351252,315.585481 364.351252,310.762396 L364.351252,201.237604 C364.351252,196.414519 361.778166,191.957804 357.601252,189.546261 L262.75,134.783866 Z" id="Borders" fill-opacity="0.87" fill="#FFFFFF" fill-rule="nonzero"></path>
    </g>
</svg>